Coordinates
version=1
nRows=4
nColumns=107
inDegrees=yes

Units are S.I. units (second, meters, Newtons, ...)
If the header above contains a line with 'inDegrees', this indicates whether rotational values are in degrees (yes) or radians (no).

endheader
time	sternoclavicular_r2	sternoclavicular_r3	unrotscap_r3	unrotscap_r2	acromioclavicular_r2	acromioclavicular_r3	acromioclavicular_r1	unrothum_r1	unrothum_r3	unrothum_r2	elv_angle	shoulder_elv	shoulder1_r2	shoulder_rot	elbow_flexion	pro_sup	deviation	flexion	proximal_distal_r1	proximal_distal_r3	cmc_flexion	cmc_abduction	mp_flexion	ip_flexion	mcp2_flexion	mcp2_abduction	pm2_flexion	md2_flexion	mcp3_flexion	mcp3_abduction	pm3_flexion	md3_flexion	mcp4_flexion	mcp4_abduction	pm4_flexion	md4_flexion	mcp5_flexion	mcp5_abduction	pm5_flexion	md5_flexion	bicpt_tx	bicpt_ty	bicpt_tz	bicpt2_tx	bicpt2_ty	bicpt2_tz	ptpt_tx	ptpt_ty	ptpt_tz	FCUpt_tx	FCUpt_ty	FCUpt_tz	EDCpt_tx	EDCpt_ty	EDCpt_tz	APLpt_tx	APLpt_ty	APLpt_tz	FPLpt_tx	FPLpt_ty	FPLpt_tz	FPLpt2_tx	FPLpt2_ty	FPLpt2_tz	PEC1pt2_tx	PEC1pt2_ty	PEC1pt2_tz	PEC1pt3_tx	PEC1pt3_ty	PEC1pt3_tz	PEC2pt2_tx	PEC2pt2_ty	PEC2pt2_tz	PEC2pt3_tx	PEC2pt3_ty	PEC2pt3_tz	PEC3pt2_tx	PEC3pt2_ty	PEC3pt2_tz	PEC3pt3_tx	PEC3pt3_ty	PEC3pt3_tz	DELT2pt2a_tx	DELT2pt2a_ty	DELT2pt2a_tz	DELT2pt2_tx	DELT2pt2_ty	DELT2pt2_tz	LAT1pt2_tx	LAT1pt2_ty	LAT1pt2_tz	LAT1pt3_tx	LAT1pt3_ty	LAT1pt3_tz	LAT2pt2_tx	LAT2pt2_ty	LAT2pt2_tz	LAT2pt3_tx	LAT2pt3_ty	LAT2pt3_tz	LAT3pt2_tx	LAT3pt2_ty	LAT3pt2_tz	LAT3pt3_tx	LAT3pt3_ty	LAT3pt3_tz
      0.50000000	     -0.31138712	      0.13188889	     -0.13188889	      0.31138712	     -0.06304956	      0.50954435	      0.22903668	     -0.22903668	     -0.50954435	      0.06304956	    101.38556916	     73.72366861	     -1.76951200	    -39.27284479	     32.24580170	     86.33271244	      0.36456811	     -0.57957840	      0.38598323	     -0.28978920	     42.64262212	    -23.12501874	     16.01074149	     10.89165483	     82.39609583	     12.83608810	     74.11296384	     86.11634097	     87.80109079	     -0.95599929	     78.96924365	     57.29470573	     83.63083223	    -13.66721585	     94.23563037	     39.85367984	     93.67964084	    -14.32378463	     93.33575138	      5.32059118	      0.00096659	     -0.03129586	     -0.00489531	      0.01420539	     -0.01895973	     -0.00101899	      0.00117099	     -0.06902478	     -0.00700456	      0.01277624	     -0.18222645	      0.00009300	     -0.01035990	      0.00359629	     -0.00076793	      0.00031168	      0.00012467	      0.00062336	      0.00039895	      0.00119685	      0.00067323	     -0.00000607	     -0.00005585	     -0.00006702	      0.00241650	      0.00847823	      0.00589790	     -0.00790482	      0.01908625	     -0.01810327	      0.00241650	      0.00847823	      0.00589790	      0.00053245	      0.01769370	     -0.00929738	      0.00385435	      0.00471464	      0.01573434	      0.00000000	      0.00726567	      0.00000000	     -0.00692184	     -0.03198791	     -0.00598784	      0.02241361	     -0.00108441	     -0.01248833	     -0.00086011	      0.01441709	     -0.00589790	      0.00237554	      0.02080648	     -0.01720220	     -0.00577503	      0.01249208	     -0.00528353	     -0.01204154	      0.02637671	     -0.02953045	     -0.02260861	      0.01396655	     -0.00708567	     -0.01499049	      0.03047248	     -0.03690282
      0.53333333	     -0.31146425	      0.13192156	     -0.13192156	      0.31146425	     -0.06306518	      0.50967057	      0.22909341	     -0.22909341	     -0.50967057	      0.06306518	    101.35158587	     73.74193083	     -1.76891888	    -39.29185901	     32.22972242	     86.33160437	      0.36457425	     -0.57955523	      0.38598723	     -0.28977762	     42.64140969	    -23.12586277	     16.00955557	     10.89137275	     82.39489661	     12.83575533	     74.11266213	     86.11623285	     87.80014768	     -0.95639364	     78.96895522	     57.29463895	     83.63029979	    -13.66734634	     94.23544015	     39.85367041	     93.68008070	    -14.32376147	     93.33548463	      5.32058012	      0.00096606	     -0.03129402	     -0.00489501	      0.01420550	     -0.01895536	     -0.00101918	      0.00117107	     -0.06902472	     -0.00700447	      0.01277611	     -0.18222649	      0.00009297	     -0.01035977	      0.00359623	     -0.00076790	      0.00031168	      0.00012467	      0.00062336	      0.00039895	      0.00119685	      0.00067323	     -0.00000607	     -0.00005587	     -0.00006705	      0.00241710	      0.00848033	      0.00589936	     -0.00790678	      0.01909098	     -0.01810776	      0.00241710	      0.00848033	      0.00589936	      0.00053258	      0.01769808	     -0.00929968	      0.00385506	      0.00471580	      0.01573614	      0.00000000	      0.00726929	      0.00000000	     -0.00692355	     -0.03199583	     -0.00599085	      0.02241967	     -0.00108510	     -0.01249944	     -0.00086032	      0.01442066	     -0.00589936	      0.00237613	      0.02081163	     -0.01720647	     -0.00577646	      0.01249517	     -0.00528484	     -0.01204453	      0.02638325	     -0.02953777	     -0.02261421	      0.01397001	     -0.00708742	     -0.01499421	      0.03048002	     -0.03691196
      0.56666667	     -0.31113828	      0.13178349	     -0.13178349	      0.31113828	     -0.06299917	      0.50913716	      0.22885365	     -0.22885365	     -0.50913716	      0.06299917	    101.58658106	     73.66475375	     -1.77302032	    -40.03597387	     32.06558459	     86.70292588	      0.36709812	     -0.58372559	      0.38790098	     -0.29186280	     42.56737660	    -23.13566650	     15.71009839	     10.89007972	     82.48630859	     12.72148386	     73.52696297	     85.88807690	     87.89217584	     -1.14784038	     78.85553273	     57.07243389	     83.82095840	    -13.69202701	     94.10811236	     40.06688039	     94.19431782	    -14.32451294	     93.40423296	      5.28934409	      0.00096063	     -0.03127521	     -0.00489198	      0.01416668	     -0.01891077	     -0.00095532	      0.00114363	     -0.06904246	     -0.00703439	      0.01281883	     -0.18221386	      0.00010334	     -0.01040433	      0.00361666	     -0.00077992	      0.00031189	      0.00012476	      0.00062379	      0.00039922	      0.00119767	      0.00067369	     -0.00000623	     -0.00005753	     -0.00006903	      0.00241457	      0.00847145	      0.00589319	     -0.00789851	      0.01907100	     -0.01808880	      0.00241457	      0.00847145	      0.00589319	      0.00053202	      0.01767956	     -0.00928995	      0.00385207	      0.00471087	      0.01572854	      0.00000000	      0.00725398	      0.00000000	     -0.00691631	     -0.03196235	     -0.00597813	      0.02265379	     -0.00111216	     -0.01293627	     -0.00085942	      0.01440556	     -0.00589319	      0.00237364	      0.02078985	     -0.01718846	     -0.00577041	      0.01248209	     -0.00527931	     -0.01203192	      0.02635563	     -0.02950685	     -0.02259054	      0.01395539	     -0.00708001	     -0.01497851	      0.03044812	     -0.03687333
      0.60000000	     -0.31119647	      0.13180814	     -0.13180814	      0.31119647	     -0.06301096	      0.50923238	      0.22889645	     -0.22889645	     -0.50923238	      0.06301096	    101.55726516	     73.67853086	     -1.77250866	    -40.05135683	     32.05091549	     86.70226315	      0.36710301	     -0.58370418	      0.38790468	     -0.29185209	     42.56623104	    -23.13621580	     15.70895639	     10.88981983	     82.48547877	     12.72127395	     73.52669580	     85.88796018	     87.89136603	     -1.14841142	     78.85522403	     57.07238871	     83.82050278	    -13.69214475	     94.10804617	     40.06686967	     94.19454211	    -14.32448604	     93.40404796	      5.28937593	      0.00096014	     -0.03127352	     -0.00489171	      0.01416675	     -0.01890679	     -0.00095543	      0.00114368	     -0.06904243	     -0.00703433	      0.01281875	     -0.18221388	      0.00010333	     -0.01040425	      0.00361663	     -0.00077990	      0.00031188	      0.00012475	      0.00062376	      0.00039921	      0.00119763	      0.00067367	     -0.00000623	     -0.00005755	     -0.00006906	      0.00241502	      0.00847304	      0.00589429	     -0.00789998	      0.01907457	     -0.01809219	      0.00241502	      0.00847304	      0.00589429	      0.00053212	      0.01768286	     -0.00929169	      0.00385260	      0.00471175	      0.01572989	      0.00000000	      0.00725672	      0.00000000	     -0.00691760	     -0.03196832	     -0.00598040	      0.02265811	     -0.00111273	     -0.01294564	     -0.00085958	      0.01440826	     -0.00589429	      0.00237409	      0.02079374	     -0.01719167	     -0.00577149	      0.01248443	     -0.00528030	     -0.01203417	      0.02636056	     -0.02951237	     -0.02259477	      0.01395800	     -0.00708133	     -0.01498131	      0.03045382	     -0.03688023
